<?xml version="1.0" encoding="utf-8"?>
<!-- Generator: Adobe Illustrator 23.0.0, SVG Export Plug-In . SVG Version: 6.00 Build 0)  -->
<svg version="1.1" id="Layer_1" xmlns="http://www.w3.org/2000/svg" xmlns:xlink="http://www.w3.org/1999/xlink" x="0px" y="0px"
	 viewBox="0 0 2446.48 2464.67" style="enable-background:new 0 0 2446.48 2464.67;" xml:space="preserve">
<style type="text/css">
	.st0{fill:#FFFFFF;}
	.st1{fill:#5D6971;}
	.st2{fill:#B8B60E;}
</style>
<g>
	<path class="st0" d="M846.62-2356.11h-18.87c-13.52,0-27.71,0.57-42.6,1.74c-14.92,1.16-28.65,3.73-41.22,7.68
		c-12.58,3.97-23.05,9.54-31.43,16.77c-8.39,7.21-12.58,17.11-12.58,29.68c0,7.92,1.75,14.57,5.24,19.92
		c3.49,5.34,8.04,9.67,13.62,12.92c5.59,3.26,11.87,5.58,18.87,6.99c6.97,1.38,13.96,2.09,20.95,2.09
		c28.87,0,50.75-7.68,65.66-23.05c14.9-15.37,22.36-36.34,22.36-62.87V-2356.11z M848.01-2245.75h-2.1
		c-8.38,14.91-21.89,27.13-40.51,36.67c-18.63,9.54-39.82,14.31-63.57,14.31c-13.5,0-27.59-1.74-42.26-5.23
		c-14.67-3.49-28.18-9.31-40.51-17.47c-12.34-8.15-22.59-18.86-30.74-32.13c-8.15-13.26-12.21-29.68-12.21-49.25
		c0-25.15,7.09-45.16,21.3-60.07c14.2-14.9,32.49-26.31,54.84-34.24s47.15-13.15,74.39-15.72c27.25-2.56,53.89-3.85,79.99-3.85
		v-8.37c0-20.97-7.58-36.44-22.71-46.47c-15.14-10-33.18-15.01-54.14-15.01c-17.71,0-34.69,3.73-50.99,11.18
		c-16.3,7.45-29.81,16.54-40.51,27.25l-43.31-51c19.09-17.69,41.1-30.96,66.02-39.81c24.9-8.85,50.17-13.29,75.79-13.29
		c29.79,0,54.37,4.2,73.7,12.59c19.32,8.37,34.58,19.31,45.75,32.83c11.18,13.5,18.97,28.63,23.4,45.4
		c4.42,16.77,6.63,33.54,6.63,50.3v203.97h-78.23V-2245.75z"/>
	<path class="st0" d="M1236.7-2404.98c0-10.69-1.51-20.89-4.52-30.64c-3.03-9.75-7.77-18.32-14.27-25.75
		c-6.51-7.42-14.74-13.33-24.71-17.75c-9.99-4.41-21.69-6.61-35.15-6.61c-25.07,0-46.29,7.55-63.7,22.61
		c-17.41,15.09-27.04,34.46-28.89,58.14H1236.7z M1320.24-2367.4v11.13c0,3.73-0.24,7.44-0.7,11.15h-254.09
		c0.92,12.07,4.06,23.08,9.41,33.06c5.32,9.99,12.41,18.57,21.23,25.75c8.8,7.21,18.79,12.88,29.93,17.05
		c11.13,4.18,22.73,6.28,34.81,6.28c20.88,0,38.5-3.84,52.9-11.5c14.38-7.66,26.21-18.21,35.5-31.68l55.68,44.57
		c-32.96,44.54-80.74,66.81-143.39,66.81c-26,0-49.9-4.06-71.7-12.18c-21.82-8.1-40.73-19.6-56.74-34.46
		c-16.02-14.84-28.55-33.06-37.59-54.63c-9.05-21.59-13.57-46.06-13.57-73.45c0-26.91,4.52-51.39,13.57-73.44
		c9.04-22.04,21.46-40.83,37.24-56.39c15.78-15.54,34.46-27.6,56.04-36.19c21.58-8.58,44.9-12.89,69.97-12.89
		c23.2,0,44.66,3.84,64.38,11.5c19.73,7.65,36.78,19.03,51.16,34.11c14.38,15.09,25.64,33.87,33.77,56.38
		C1316.18-2423.88,1320.24-2397.56,1320.24-2367.4"/>
	<path class="st0" d="M1460.83-2372.92c0,13,1.97,25.99,5.91,38.97c3.94,12.99,9.85,24.59,17.75,34.79
		c7.89,10.22,17.85,18.57,29.92,25.06c12.07,6.51,26.21,9.75,42.47,9.75c15.31,0,28.98-3.14,41.05-9.41
		c12.07-6.26,22.39-14.49,30.98-24.7c8.57-10.21,15.07-21.68,19.49-34.45c4.41-12.75,6.61-25.62,6.61-38.63
		c0-12.98-2.2-25.97-6.61-38.96c-4.42-12.98-10.91-24.6-19.49-34.81c-8.6-10.19-18.92-18.55-30.98-25.05
		c-12.07-6.5-25.74-9.76-41.05-9.76c-16.26,0-30.4,3.14-42.47,9.41c-12.07,6.26-22.03,14.51-29.92,24.7
		c-7.9,10.21-13.81,21.7-17.75,34.45C1462.81-2398.79,1460.83-2385.92,1460.83-2372.92 M1735.74-2204.5h-79.34v-50.11h-1.39
		c-11.61,19.49-27.73,34.35-48.38,44.54c-20.64,10.21-42.8,15.31-66.46,15.31c-25.53,0-48.37-4.76-68.55-14.27
		c-20.18-9.5-37.35-22.26-51.51-38.26c-14.16-16-25.06-34.81-32.71-56.38c-7.66-21.56-11.48-44.65-11.48-69.25
		c0-24.59,3.94-47.57,11.83-68.9c7.89-21.34,19.03-39.91,33.41-55.68c14.37-15.76,31.54-28.18,51.5-37.23
		c19.94-9.05,41.76-13.58,65.42-13.58c15.32,0,29,1.75,41.07,5.23c12.05,3.48,22.61,7.79,31.67,12.88
		c9.04,5.11,16.8,10.69,23.31,16.7c6.48,6.04,11.83,11.84,16,17.4h2.09v-188.4h83.52V-2204.5z"/>
	<path class="st0" d="M2106.1-2205.42h-81.16v-54.83h-1.42c-7.61,17.09-20.78,32.17-39.51,45.23
		c-18.77,13.04-40.95,19.57-66.58,19.57c-22.32,0-41.42-3.9-57.31-11.75c-15.91-7.82-28.96-18.16-39.17-30.97
		c-10.21-12.81-17.68-27.51-22.42-44.13c-4.75-16.61-7.12-33.7-7.12-51.27v-213.58h85.43v189.37c0,9.98,0.72,20.42,2.13,31.32
		c1.43,10.94,4.51,20.78,9.26,29.55c4.74,8.79,11.27,16.03,19.58,21.71c8.3,5.7,19.34,8.55,33.1,8.55c13.28,0,25.02-2.73,35.24-8.2
		c10.19-5.46,18.5-12.45,24.92-20.99c6.4-8.55,11.27-18.39,14.59-29.55c3.31-11.14,4.99-22.42,4.99-33.82v-187.94h85.43V-2205.42z"
		/>
	<path class="st0" d="M521.4-2310.48c-20,29.68-53.1,47.4-88.56,47.4c-58.96,0-106.93-47.97-106.93-106.92
		c0-58.97,47.97-106.94,106.93-106.94c35.62,0,68.8,17.72,88.78,47.39l1.72,2.57l58.32-45.1l-1.61-2.26
		c-33.96-47.79-89-76.31-147.21-76.31c-99.61,0-180.65,81.04-180.65,180.66c0,99.6,81.04,180.64,180.65,180.64
		c57.64,0,112.35-28.14,146.35-75.26l1.61-2.24l-57.64-46.23L521.4-2310.48z"/>
	<path class="st0" d="M1186.38-3430.57c-587.99,0-1066.36,478.37-1066.36,1066.36s478.37,1066.35,1066.36,1066.35
		s1066.36-478.36,1066.36-1066.35S1774.37-3430.57,1186.38-3430.57 M1186.38-1234.19c-623.09,0-1130.02-506.93-1130.02-1130.02
		c0-623.1,506.93-1130.03,1130.02-1130.03S2316.4-2987.32,2316.4-2364.21C2316.4-1741.12,1809.47-1234.19,1186.38-1234.19"/>
	<g>
		<path class="st0" d="M2653.75-2325.69c0,1.94,0,3.87,0,5.8c0,1.94-0.12,3.87-0.36,5.8h-136.73c0.24,7.21,1.87,13.99,4.9,20.35
			c3.02,6.36,7.07,11.89,12.15,16.57c5.08,4.68,10.94,8.34,17.59,10.98c6.65,2.64,13.72,3.96,21.22,3.96
			c11.61,0,21.64-2.54,30.1-7.62c8.46-5.08,15.11-11.24,19.95-18.5l23.94,19.22c-9.19,12.18-20.01,21.15-32.46,26.91
			c-12.46,5.75-26.3,8.63-41.53,8.63c-13.06,0-25.15-2.18-36.27-6.53c-11.12-4.35-20.67-10.46-28.65-18.32
			c-7.98-7.85-14.27-17.35-18.86-28.47c-4.6-11.12-6.89-23.45-6.89-36.99c0-13.3,2.24-25.57,6.72-36.81
			c4.48-11.24,10.72-20.85,18.72-28.83c8-7.98,17.45-14.2,28.35-18.68c10.9-4.47,22.65-6.71,35.25-6.71
			c12.6,0,24.05,2.06,34.35,6.17c10.3,4.11,19.02,10.04,26.17,17.77c7.15,7.74,12.66,17.11,16.54,28.11
			C2651.82-2351.86,2653.75-2339.47,2653.75-2325.69z M2618.94-2339.47c-0.24-6.77-1.39-13.11-3.45-19.04
			c-2.06-5.92-5.08-11.06-9.07-15.41c-3.99-4.35-8.95-7.8-14.87-10.34c-5.93-2.54-12.88-3.81-20.85-3.81
			c-7.25,0-14.09,1.27-20.49,3.81c-6.41,2.54-11.97,5.98-16.68,10.34s-8.59,9.49-11.61,15.41c-3.03,5.93-4.78,12.27-5.26,19.04
			H2618.94z M2580.63-2442.84h-27.92l36.25-52.23h40.97L2580.63-2442.84z"/>
		<path class="st0" d="M2905.46-2417.45c11.36,0,21.09,1.99,29.2,5.98c8.1,3.99,14.75,9.25,19.95,15.78
			c5.2,6.53,9.01,14.03,11.42,22.49c2.42,8.47,3.63,17.17,3.63,26.11v108.81h-43.52v-96.48c0-5.08-0.36-10.39-1.09-15.96
			c-0.73-5.56-2.3-10.57-4.72-15.05c-2.42-4.47-5.75-8.16-9.97-11.06c-4.23-2.9-9.85-4.35-16.86-4.35c-6.77,0-12.58,1.45-17.41,4.35
			c-4.84,2.9-8.83,6.65-11.97,11.24c-3.15,4.6-5.44,9.74-6.89,15.41c-1.45,5.68-2.18,11.31-2.18,16.86v95.03h-43.52v-105.18
			c0-10.88-2.6-19.88-7.8-27.02c-5.2-7.13-13.36-10.7-24.48-10.7c-6.53,0-12.21,1.39-17.05,4.17c-4.84,2.78-8.77,6.35-11.79,10.7
			c-3.03,4.35-5.32,9.37-6.89,15.05c-1.58,5.68-2.36,11.43-2.36,17.23v95.75h-43.52v-174.09h41.35v27.93h0.73
			c1.93-4.35,4.53-8.46,7.8-12.33c3.26-3.86,7.13-7.37,11.61-10.52c4.47-3.14,9.61-5.62,15.41-7.44c5.8-1.81,12.21-2.72,19.22-2.72
			c13.54,0,24.78,3.03,33.73,9.07c8.94,6.05,15.83,14.03,20.67,23.94c5.8-10.64,13.54-18.8,23.21-24.48
			C2881.04-2414.6,2892.4-2417.45,2905.46-2417.45z"/>
		<path class="st0" d="M3128.52-2260.4h-1.09c-4.35,7.74-11.37,14.09-21.04,19.04c-9.67,4.95-20.67,7.43-33.01,7.43
			c-7.02,0-14.33-0.91-21.94-2.72c-7.62-1.81-14.63-4.83-21.04-9.07c-6.41-4.23-11.73-9.79-15.96-16.68
			c-4.23-6.89-6.35-15.41-6.35-25.57c0-13.06,3.68-23.45,11.06-31.19c7.37-7.74,16.86-13.66,28.47-17.77
			c11.61-4.11,24.48-6.83,38.63-8.16c14.15-1.33,27.98-1.99,41.53-1.99v-4.35c0-10.88-3.93-18.92-11.79-24.12
			c-7.86-5.2-17.23-7.8-28.11-7.8c-9.19,0-18.02,1.94-26.48,5.8c-8.47,3.87-15.48,8.58-21.04,14.15l-22.49-26.48
			c9.91-9.19,21.34-16.08,34.28-20.67c12.93-4.59,26.05-6.89,39.35-6.89c15.47,0,28.23,2.18,38.26,6.53
			c10.03,4.35,17.95,10.04,23.76,17.05c5.8,7.02,9.85,14.87,12.15,23.57c2.3,8.7,3.45,17.41,3.45,26.11v105.91h-40.62V-2260.4z
			 M3127.79-2317.71H3118c-7.02,0-14.39,0.31-22.12,0.91c-7.74,0.61-14.87,1.94-21.4,3.99c-6.53,2.06-11.97,4.96-16.32,8.7
			c-4.35,3.75-6.53,8.89-6.53,15.41c0,4.11,0.91,7.56,2.72,10.34c1.81,2.78,4.17,5.02,7.07,6.71c2.9,1.69,6.17,2.9,9.79,3.63
			c3.63,0.73,7.25,1.09,10.88,1.09c14.99,0,26.35-3.99,34.09-11.97c7.74-7.98,11.61-18.86,11.61-32.64V-2317.71z"/>
		<path class="st0" d="M3214.47-2471.49c0-7.01,2.6-13.11,7.8-18.32c5.2-5.2,11.79-7.8,19.77-7.8c7.98,0,14.69,2.48,20.13,7.43
			c5.44,4.96,8.16,11.19,8.16,18.68c0,7.5-2.72,13.73-8.16,18.68c-5.44,4.96-12.15,7.44-20.13,7.44c-7.98,0-14.57-2.6-19.77-7.8
			C3217.07-2458.37,3214.47-2464.47,3214.47-2471.49z M3220.64-2412.37h43.52v174.09h-43.52V-2412.37z"/>
		<path class="st0" d="M3412.5-2365.95c-3.87-5.08-9.19-9.49-15.96-13.24c-6.77-3.75-14.15-5.62-22.12-5.62
			c-7.02,0-13.42,1.45-19.22,4.35c-5.8,2.9-8.7,7.74-8.7,14.51c0,6.77,3.2,11.55,9.61,14.33c6.4,2.78,15.78,5.62,28.11,8.52
			c6.53,1.45,13.11,3.39,19.77,5.8c6.65,2.42,12.69,5.62,18.13,9.61c5.44,3.99,9.85,8.95,13.24,14.87
			c3.38,5.93,5.08,13.12,5.08,21.58c0,10.64-1.99,19.65-5.98,27.02c-3.99,7.38-9.31,13.36-15.96,17.95
			c-6.65,4.6-14.39,7.92-23.21,9.97c-8.83,2.05-17.95,3.08-27.38,3.08c-13.54,0-26.72-2.48-39.53-7.43
			c-12.82-4.95-23.46-12.03-31.92-21.22l28.65-26.84c4.83,6.29,11.12,11.49,18.86,15.6c7.73,4.11,16.32,6.17,25.75,6.17
			c3.14,0,6.35-0.36,9.61-1.09c3.26-0.72,6.28-1.87,9.07-3.45c2.78-1.57,5.01-3.68,6.71-6.35c1.69-2.66,2.54-5.92,2.54-9.79
			c0-7.25-3.33-12.45-9.97-15.6c-6.65-3.14-16.63-6.28-29.92-9.43c-6.53-1.45-12.88-3.32-19.04-5.62c-6.17-2.3-11.67-5.32-16.5-9.07
			c-4.84-3.75-8.7-8.4-11.61-13.96c-2.9-5.56-4.35-12.45-4.35-20.67c0-9.67,1.99-18.01,5.98-25.03c3.99-7.01,9.25-12.75,15.78-17.23
			c6.53-4.47,13.9-7.8,22.12-9.97c8.22-2.18,16.68-3.26,25.39-3.26c12.57,0,24.84,2.18,36.81,6.53
			c11.97,4.35,21.46,11.01,28.47,19.95L3412.5-2365.95z"/>
		<path class="st0" d="M3509.33-2151.23h-24.66v-256.79h24.66v29.38h1.09c7.01-11.12,16.38-19.52,28.11-25.21
			c11.72-5.68,23.63-8.52,35.72-8.52c13.3,0,25.33,2.3,36.09,6.89c10.76,4.6,19.95,10.88,27.56,18.86
			c7.62,7.98,13.54,17.41,17.77,28.29c4.23,10.88,6.35,22.61,6.35,35.18c0,12.58-2.12,24.3-6.35,35.18
			c-4.23,10.88-10.16,20.31-17.77,28.29c-7.62,7.98-16.81,14.27-27.56,18.86c-10.76,4.59-22.79,6.89-36.09,6.89
			c-12.09,0-24-2.85-35.72-8.52c-11.73-5.68-21.1-13.84-28.11-24.48h-1.09V-2151.23z M3635.91-2323.15c0-9.43-1.45-18.32-4.35-26.66
			c-2.9-8.34-7.07-15.59-12.51-21.76s-12.15-11.06-20.13-14.69c-7.98-3.63-17.05-5.44-27.2-5.44c-9.43,0-18.13,1.76-26.11,5.26
			c-7.98,3.51-14.87,8.34-20.67,14.51c-5.8,6.17-10.34,13.42-13.6,21.76c-3.26,8.34-4.9,17.35-4.9,27.02
			c0,9.67,1.63,18.68,4.9,27.02c3.26,8.34,7.8,15.54,13.6,21.58c5.8,6.05,12.69,10.82,20.67,14.33c7.98,3.51,16.68,5.26,26.11,5.26
			c10.16,0,19.22-1.75,27.2-5.26c7.98-3.5,14.69-8.34,20.13-14.51c5.44-6.17,9.61-13.42,12.51-21.76
			S3635.91-2313.72,3635.91-2323.15z"/>
		<path class="st0" d="M3821.97-2348.13c0-14.64-3.87-25.56-11.61-32.76c-7.74-7.2-18.98-10.8-33.73-10.8
			c-10.16,0-19.59,1.81-28.29,5.44c-8.7,3.63-16.08,8.47-22.12,14.51l-13.78-16.32c7.01-7.01,16.26-12.81,27.75-17.41
			c11.48-4.59,24.48-6.89,38.99-6.89c9.19,0,17.77,1.27,25.75,3.81c7.98,2.54,14.99,6.35,21.04,11.42
			c6.04,5.08,10.76,11.49,14.15,19.22c3.38,7.74,5.08,16.81,5.08,27.2v74.35c0,6.53,0.24,13.3,0.72,20.31
			c0.48,7.02,1.21,12.94,2.18,17.77h-22.13c-0.72-4.11-1.33-8.58-1.81-13.42c-0.49-4.83-0.73-9.55-0.73-14.15h-0.72
			c-7.74,11.37-16.5,19.53-26.3,24.48c-9.79,4.95-21.58,7.43-35.36,7.43c-6.53,0-13.24-0.91-20.13-2.73
			c-6.89-1.82-13.18-4.79-18.86-8.92c-5.68-4.13-10.4-9.46-14.14-16.02c-3.75-6.55-5.62-14.55-5.62-24.02
			c0-13.1,3.32-23.47,9.97-31.11c6.65-7.64,15.53-13.34,26.66-17.1c11.12-3.76,23.88-6.19,38.26-7.28
			c14.38-1.09,29.32-1.64,44.79-1.64V-2348.13z M3814.71-2323.15c-10.16,0-20.37,0.43-30.65,1.27c-10.28,0.85-19.59,2.54-27.93,5.08
			s-15.18,6.23-20.49,11.06c-5.32,4.84-7.98,11.24-7.98,19.22c0,6.05,1.14,11.12,3.45,15.23c2.3,4.11,5.38,7.44,9.25,9.97
			c3.86,2.54,8.16,4.35,12.88,5.44c4.72,1.09,9.49,1.63,14.33,1.63c8.7,0,16.44-1.51,23.21-4.53c6.77-3.02,12.45-7.13,17.05-12.33
			c4.59-5.2,8.1-11.18,10.52-17.95c2.41-6.77,3.63-13.9,3.63-21.4v-12.69H3814.71z"/>
		<path class="st0" d="M3908.29-2388.43c-0.24-7.25-0.61-13.78-1.09-19.59h23.57c0.48,4.6,0.84,9.67,1.09,15.23
			c0.24,5.57,0.36,10.16,0.36,13.78h0.73c4.83-9.91,12.09-17.95,21.76-24.12c9.67-6.17,20.55-9.25,32.64-9.25
			c3.14,0,5.98,0.12,8.52,0.36c2.54,0.24,5.13,0.73,7.8,1.45l-3.26,23.57c-1.45-0.48-3.87-0.96-7.25-1.45
			c-3.39-0.48-6.77-0.72-10.16-0.72c-6.53,0-12.82,1.21-18.86,3.62c-6.05,2.42-11.31,6.21-15.78,11.4
			c-4.48,5.19-8.1,11.82-10.88,19.9c-2.78,8.08-4.17,17.79-4.17,29.13v86.84h-24.66v-132.38
			C3908.65-2375.25,3908.52-2381.18,3908.29-2388.43z"/>
		<path class="st0" d="M4146.21-2348.13c0-14.64-3.87-25.56-11.61-32.76c-7.74-7.2-18.98-10.8-33.73-10.8
			c-10.16,0-19.59,1.81-28.29,5.44c-8.7,3.63-16.08,8.47-22.12,14.51l-13.78-16.32c7.01-7.01,16.26-12.81,27.75-17.41
			c11.48-4.59,24.48-6.89,38.99-6.89c9.19,0,17.77,1.27,25.75,3.81c7.98,2.54,14.99,6.35,21.04,11.42
			c6.04,5.08,10.76,11.49,14.15,19.22c3.38,7.74,5.08,16.81,5.08,27.2v74.35c0,6.53,0.24,13.3,0.72,20.31
			c0.48,7.02,1.21,12.94,2.18,17.77h-22.13c-0.72-4.11-1.33-8.58-1.81-13.42c-0.49-4.83-0.73-9.55-0.73-14.15h-0.72
			c-7.74,11.37-16.5,19.53-26.3,24.48c-9.79,4.95-21.58,7.43-35.36,7.43c-6.53,0-13.24-0.91-20.13-2.73
			c-6.89-1.82-13.18-4.79-18.86-8.92c-5.68-4.13-10.4-9.46-14.15-16.02c-3.75-6.55-5.62-14.55-5.62-24.02
			c0-13.1,3.32-23.47,9.97-31.11c6.65-7.64,15.53-13.34,26.66-17.1c11.12-3.76,23.88-6.19,38.26-7.28
			c14.38-1.09,29.32-1.64,44.79-1.64V-2348.13z M4138.95-2323.15c-10.16,0-20.37,0.43-30.65,1.27c-10.28,0.85-19.58,2.54-27.93,5.08
			s-15.18,6.23-20.49,11.06c-5.32,4.84-7.98,11.24-7.98,19.22c0,6.05,1.14,11.12,3.45,15.23c2.3,4.11,5.38,7.44,9.25,9.97
			c3.86,2.54,8.16,4.35,12.88,5.44c4.72,1.09,9.49,1.63,14.33,1.63c8.7,0,16.44-1.51,23.21-4.53c6.77-3.02,12.45-7.13,17.05-12.33
			c4.59-5.2,8.1-11.18,10.52-17.95c2.41-6.77,3.63-13.9,3.63-21.4v-12.69H4138.95z"/>
		<path class="st0" d="M4200.25-2412.37h47.51l45.7,126.94h0.72l46.06-126.94h46.06l-69.27,174.09h-46.42L4200.25-2412.37z"/>
		<path class="st0" d="M4402.26-2326.05c0-13.78,2.48-26.3,7.44-37.54c4.95-11.24,11.66-20.85,20.13-28.83
			c8.46-7.98,18.5-14.15,30.1-18.5c11.61-4.35,23.94-6.53,37-6.53c13.06,0,25.39,2.18,36.99,6.53c11.61,4.35,21.64,10.52,30.1,18.5
			c8.46,7.98,15.17,17.59,20.13,28.83c4.95,11.24,7.44,23.76,7.44,37.54s-2.48,26.36-7.44,37.72c-4.96,11.37-11.67,21.1-20.13,29.2
			c-8.47,8.1-18.5,14.45-30.1,19.04c-11.61,4.59-23.94,6.89-36.99,6.89c-13.06,0-25.39-2.3-37-6.89
			c-11.61-4.59-21.64-10.94-30.1-19.04c-8.47-8.1-15.18-17.83-20.13-29.2C4404.74-2299.69,4402.26-2312.27,4402.26-2326.05z
			 M4446.51-2326.05c0,6.77,1.03,13.54,3.08,20.31c2.05,6.77,5.13,12.82,9.25,18.13c4.11,5.32,9.3,9.67,15.6,13.06
			c6.28,3.39,13.78,5.08,22.49,5.08c8.7,0,16.2-1.69,22.49-5.08c6.28-3.38,11.48-7.74,15.6-13.06c4.11-5.32,7.19-11.36,9.25-18.13
			c2.05-6.77,3.08-13.54,3.08-20.31c0-6.77-1.03-13.48-3.08-20.13c-2.06-6.65-5.14-12.63-9.25-17.95
			c-4.12-5.32-9.31-9.61-15.6-12.88c-6.29-3.26-13.78-4.9-22.49-4.9c-8.71,0-16.2,1.63-22.49,4.9c-6.29,3.26-11.49,7.56-15.6,12.88
			c-4.12,5.32-7.2,11.31-9.25,17.95C4447.53-2339.53,4446.51-2332.82,4446.51-2326.05z"/>
		<path class="st0" d="M4752.61-2364.13c-3.39-4.83-8.47-8.89-15.23-12.15c-6.77-3.26-13.66-4.9-20.67-4.9
			c-7.98,0-15,1.63-21.04,4.9c-6.05,3.26-11.06,7.56-15.05,12.88c-3.99,5.32-6.95,11.31-8.89,17.95c-1.94,6.65-2.9,13.36-2.9,20.13
			c0,6.77,1.03,13.48,3.08,20.13c2.05,6.65,5.13,12.64,9.25,17.95c4.11,5.32,9.25,9.61,15.41,12.88c6.17,3.26,13.36,4.9,21.58,4.9
			c6.77,0,13.54-1.33,20.31-3.99c6.77-2.66,12.21-6.53,16.32-11.61l27.2,27.57c-7.25,7.74-16.5,13.73-27.74,17.95
			c-11.24,4.23-23.39,6.35-36.45,6.35c-12.82,0-24.97-2.06-36.45-6.17c-11.49-4.11-21.52-10.16-30.1-18.13
			c-8.59-7.98-15.36-17.65-20.31-29.02c-4.96-11.36-7.43-24.3-7.43-38.81c0-14.02,2.48-26.71,7.43-38.08
			c4.95-11.36,11.66-21.04,20.13-29.02c8.46-7.98,18.32-14.15,29.56-18.5c11.24-4.35,23.27-6.53,36.09-6.53
			c12.81,0,25.21,2.42,37.18,7.25c11.97,4.84,21.46,11.49,28.47,19.95L4752.61-2364.13z"/>
		<path class="st0" d="M4976.76-2323.15c0,1.94,0,3.87,0,5.8c0,1.94-0.12,3.87-0.36,5.8h-132.38c0.48,6.29,2.11,12.03,4.9,17.23
			c2.78,5.2,6.47,9.67,11.06,13.42c4.59,3.75,9.79,6.71,15.6,8.89c5.8,2.18,11.84,3.26,18.14,3.26c10.88,0,20.07-2,27.56-5.99
			c7.49-3.99,13.66-9.49,18.5-16.5l29.02,23.21c-17.17,23.21-42.07,34.82-74.72,34.82c-13.54,0-25.99-2.12-37.36-6.35
			c-11.37-4.23-21.22-10.21-29.56-17.95c-8.34-7.74-14.87-17.23-19.59-28.47c-4.71-11.24-7.07-23.99-7.07-38.26
			c0-14.02,2.36-26.78,7.07-38.26c4.72-11.48,11.18-21.27,19.4-29.38c8.22-8.1,17.95-14.38,29.2-18.86
			c11.24-4.47,23.39-6.71,36.45-6.71c12.09,0,23.27,1.99,33.55,5.98c10.27,3.99,19.16,9.92,26.66,17.77
			c7.49,7.86,13.36,17.65,17.59,29.38C4974.64-2352.58,4976.76-2338.86,4976.76-2323.15z M4918.72-2442.84l-25.02-32.64
			l-25.03,32.64h-40.62l41.71-52.23h48.96l41.35,52.23H4918.72z M4933.23-2342.73c0-5.56-0.79-10.88-2.36-15.96
			c-1.58-5.08-4.05-9.55-7.44-13.42c-3.39-3.86-7.68-6.95-12.88-9.25c-5.2-2.3-11.31-3.45-18.32-3.45
			c-13.06,0-24.12,3.93-33.19,11.79c-9.07,7.86-14.09,17.95-15.05,30.28H4933.23z"/>
	</g>
</g>
<g>
	<path class="st1" d="M894.62,1243.89h-18.87c-13.52,0-27.71,0.57-42.6,1.74c-14.92,1.16-28.65,3.73-41.22,7.68
		c-12.58,3.97-23.05,9.54-31.43,16.77c-8.39,7.21-12.58,17.11-12.58,29.68c0,7.92,1.75,14.57,5.24,19.92
		c3.49,5.34,8.04,9.67,13.62,12.92c5.59,3.26,11.87,5.58,18.87,6.99c6.97,1.38,13.96,2.09,20.95,2.09
		c28.87,0,50.75-7.68,65.66-23.05c14.9-15.37,22.36-36.34,22.36-62.87V1243.89z M896.01,1354.25h-2.1
		c-8.38,14.91-21.89,27.13-40.51,36.67c-18.63,9.54-39.82,14.32-63.57,14.32c-13.5,0-27.59-1.74-42.26-5.23
		c-14.67-3.49-28.18-9.32-40.51-17.47c-12.34-8.15-22.59-18.86-30.74-32.13c-8.15-13.26-12.21-29.68-12.21-49.25
		c0-25.15,7.09-45.16,21.3-60.07c14.2-14.9,32.49-26.31,54.84-34.24s47.15-13.15,74.39-15.72c27.25-2.56,53.89-3.85,79.99-3.85
		v-8.37c0-20.97-7.58-36.44-22.71-46.47c-15.14-10-33.18-15.01-54.14-15.01c-17.71,0-34.69,3.73-50.99,11.18
		c-16.3,7.45-29.81,16.54-40.51,27.25l-43.31-51c19.09-17.69,41.1-30.96,66.02-39.81c24.9-8.85,50.17-13.29,75.79-13.29
		c29.79,0,54.37,4.2,73.7,12.59c19.32,8.37,34.58,19.32,45.75,32.83c11.18,13.5,18.97,28.63,23.4,45.4
		c4.42,16.77,6.63,33.54,6.63,50.3v203.97h-78.23V1354.25z"/>
	<path class="st1" d="M1284.7,1195.02c0-10.68-1.51-20.89-4.52-30.64c-3.03-9.75-7.77-18.32-14.27-25.75
		c-6.51-7.42-14.74-13.33-24.71-17.75c-9.99-4.41-21.69-6.61-35.15-6.61c-25.07,0-46.29,7.55-63.7,22.61
		c-17.41,15.09-27.04,34.46-28.89,58.14H1284.7z M1368.24,1232.6v11.13c0,3.73-0.24,7.44-0.7,11.15h-254.09
		c0.92,12.07,4.06,23.08,9.41,33.06c5.32,9.99,12.41,18.57,21.23,25.75c8.8,7.21,18.79,12.88,29.93,17.05
		c11.13,4.18,22.73,6.28,34.81,6.28c20.88,0,38.5-3.84,52.9-11.5c14.38-7.66,26.21-18.21,35.5-31.68l55.68,44.57
		c-32.96,44.54-80.74,66.81-143.39,66.81c-26,0-49.9-4.06-71.7-12.18c-21.82-8.1-40.73-19.6-56.74-34.46
		c-16.02-14.84-28.55-33.06-37.59-54.63c-9.05-21.59-13.57-46.06-13.57-73.45c0-26.91,4.52-51.39,13.57-73.44
		c9.04-22.04,21.46-40.83,37.24-56.39c15.78-15.54,34.46-27.6,56.04-36.19c21.58-8.58,44.9-12.89,69.97-12.89
		c23.2,0,44.66,3.84,64.38,11.5c19.73,7.65,36.78,19.03,51.16,34.11c14.38,15.09,25.64,33.87,33.77,56.38
		C1364.18,1176.12,1368.24,1202.44,1368.24,1232.6"/>
	<path class="st1" d="M1508.83,1227.08c0,13,1.97,25.99,5.91,38.97c3.94,12.99,9.85,24.59,17.75,34.79
		c7.89,10.22,17.85,18.57,29.92,25.06c12.07,6.51,26.21,9.75,42.47,9.75c15.31,0,28.98-3.14,41.05-9.41
		c12.07-6.26,22.39-14.49,30.98-24.7c8.57-10.21,15.07-21.68,19.49-34.45c4.41-12.75,6.61-25.62,6.61-38.63
		c0-12.98-2.2-25.97-6.61-38.96c-4.42-12.98-10.91-24.6-19.49-34.81c-8.6-10.19-18.92-18.55-30.98-25.05
		c-12.07-6.5-25.74-9.76-41.05-9.76c-16.26,0-30.4,3.14-42.47,9.41c-12.07,6.26-22.03,14.51-29.92,24.7
		c-7.9,10.21-13.81,21.7-17.75,34.45C1510.81,1201.21,1508.83,1214.08,1508.83,1227.08 M1783.74,1395.5h-79.34v-50.11h-1.39
		c-11.61,19.49-27.73,34.35-48.38,44.54c-20.64,10.21-42.8,15.31-66.46,15.31c-25.53,0-48.37-4.76-68.55-14.27
		c-20.18-9.5-37.35-22.26-51.51-38.26c-14.16-16-25.06-34.81-32.71-56.38c-7.66-21.56-11.48-44.65-11.48-69.25
		c0-24.59,3.94-47.57,11.83-68.9c7.89-21.34,19.03-39.91,33.41-55.68c14.37-15.76,31.54-28.18,51.5-37.23
		c19.94-9.05,41.76-13.58,65.42-13.58c15.32,0,29,1.75,41.07,5.23c12.05,3.48,22.61,7.79,31.67,12.88
		c9.04,5.11,16.8,10.68,23.31,16.7c6.48,6.04,11.83,11.84,16,17.4h2.09v-188.4h83.52V1395.5z"/>
	<path class="st1" d="M2154.1,1394.58h-81.16v-54.83h-1.42c-7.61,17.09-20.78,32.17-39.51,45.23
		c-18.77,13.04-40.95,19.57-66.58,19.57c-22.32,0-41.42-3.9-57.31-11.75c-15.91-7.82-28.96-18.16-39.17-30.97
		c-10.21-12.81-17.68-27.51-22.42-44.13c-4.75-16.61-7.12-33.7-7.12-51.27v-213.58h85.43v189.37c0,9.98,0.72,20.42,2.13,31.32
		c1.43,10.94,4.51,20.78,9.26,29.55c4.74,8.79,11.27,16.03,19.58,21.71c8.3,5.7,19.34,8.55,33.1,8.55c13.28,0,25.02-2.73,35.24-8.2
		c10.19-5.46,18.5-12.45,24.92-20.99c6.4-8.55,11.27-18.39,14.59-29.55c3.31-11.14,4.99-22.42,4.99-33.82v-187.94h85.43V1394.58z"/>
	<path class="st1" d="M569.4,1289.52c-20,29.68-53.1,47.4-88.56,47.4c-58.96,0-106.93-47.97-106.93-106.92
		c0-58.97,47.97-106.94,106.93-106.94c35.62,0,68.8,17.72,88.78,47.39l1.72,2.57l58.32-45.1l-1.61-2.26
		c-33.96-47.79-89-76.31-147.21-76.31c-99.61,0-180.65,81.04-180.65,180.66c0,99.6,81.04,180.64,180.65,180.64
		c57.64,0,112.35-28.14,146.35-75.26l1.61-2.24l-57.64-46.23L569.4,1289.52z"/>
	<path class="st2" d="M1234.38,169.43c-587.99,0-1066.36,478.37-1066.36,1066.36s478.37,1066.35,1066.36,1066.35
		s1066.36-478.36,1066.36-1066.35S1822.37,169.43,1234.38,169.43 M1234.38,2365.81c-623.09,0-1130.02-506.93-1130.02-1130.02
		c0-623.1,506.93-1130.03,1130.02-1130.03S2364.4,612.68,2364.4,1235.79C2364.4,1858.88,1857.47,2365.81,1234.38,2365.81"/>
</g>
<g>
	<path class="st1" d="M894.62,4715.89h-18.87c-13.52,0-27.71,0.57-42.6,1.74c-14.92,1.16-28.65,3.73-41.22,7.68
		c-12.58,3.97-23.05,9.54-31.43,16.77c-8.39,7.21-12.58,17.11-12.58,29.68c0,7.92,1.75,14.57,5.24,19.92
		c3.49,5.34,8.04,9.67,13.62,12.92c5.59,3.27,11.87,5.58,18.87,6.99c6.97,1.38,13.96,2.09,20.95,2.09
		c28.87,0,50.75-7.68,65.66-23.05c14.9-15.37,22.36-36.34,22.36-62.87V4715.89z M896.01,4826.25h-2.1
		c-8.38,14.91-21.89,27.13-40.51,36.67c-18.63,9.54-39.82,14.31-63.57,14.31c-13.5,0-27.59-1.74-42.26-5.23
		c-14.67-3.49-28.18-9.31-40.51-17.47c-12.34-8.15-22.59-18.86-30.74-32.13c-8.15-13.26-12.21-29.68-12.21-49.25
		c0-25.15,7.09-45.16,21.3-60.07c14.2-14.9,32.49-26.31,54.84-34.24s47.15-13.15,74.39-15.72c27.25-2.56,53.89-3.85,79.99-3.85
		v-8.37c0-20.97-7.58-36.44-22.71-46.47c-15.14-10-33.18-15.01-54.14-15.01c-17.71,0-34.69,3.73-50.99,11.18
		c-16.3,7.45-29.81,16.54-40.51,27.25l-43.31-51c19.09-17.69,41.1-30.96,66.02-39.81c24.9-8.85,50.17-13.29,75.79-13.29
		c29.79,0,54.37,4.2,73.7,12.59c19.32,8.37,34.58,19.32,45.75,32.83c11.18,13.5,18.97,28.63,23.4,45.4
		c4.42,16.77,6.63,33.54,6.63,50.3v203.97h-78.23V4826.25z"/>
	<path class="st1" d="M1284.7,4667.02c0-10.68-1.51-20.89-4.52-30.64c-3.03-9.75-7.77-18.32-14.27-25.75
		c-6.51-7.42-14.74-13.33-24.71-17.75c-9.99-4.41-21.69-6.61-35.15-6.61c-25.07,0-46.29,7.55-63.7,22.61
		c-17.41,15.09-27.04,34.46-28.89,58.14H1284.7z M1368.24,4704.6v11.13c0,3.73-0.24,7.44-0.7,11.15h-254.09
		c0.92,12.07,4.06,23.08,9.41,33.06c5.32,9.99,12.41,18.57,21.23,25.75c8.8,7.21,18.79,12.88,29.93,17.05
		c11.13,4.18,22.73,6.28,34.81,6.28c20.88,0,38.5-3.84,52.9-11.5c14.38-7.66,26.21-18.21,35.5-31.68l55.68,44.57
		c-32.96,44.54-80.74,66.81-143.39,66.81c-26,0-49.9-4.06-71.7-12.18c-21.82-8.1-40.73-19.6-56.74-34.46
		c-16.02-14.84-28.55-33.06-37.59-54.63c-9.05-21.59-13.57-46.06-13.57-73.45c0-26.91,4.52-51.39,13.57-73.44
		c9.04-22.04,21.46-40.83,37.24-56.39c15.78-15.54,34.46-27.6,56.04-36.19c21.58-8.58,44.9-12.89,69.97-12.89
		c23.2,0,44.66,3.84,64.38,11.5c19.73,7.65,36.78,19.03,51.16,34.11c14.38,15.09,25.64,33.87,33.77,56.38
		C1364.18,4648.12,1368.24,4674.44,1368.24,4704.6"/>
	<path class="st1" d="M1508.83,4699.08c0,13,1.97,25.99,5.91,38.97c3.94,12.99,9.85,24.59,17.75,34.79
		c7.89,10.22,17.85,18.57,29.92,25.06c12.07,6.51,26.21,9.75,42.47,9.75c15.31,0,28.98-3.14,41.05-9.41
		c12.07-6.26,22.39-14.49,30.98-24.7c8.57-10.21,15.07-21.68,19.49-34.45c4.41-12.75,6.61-25.62,6.61-38.63
		c0-12.98-2.2-25.97-6.61-38.96c-4.42-12.98-10.91-24.6-19.49-34.81c-8.6-10.19-18.92-18.55-30.98-25.05
		c-12.07-6.5-25.74-9.76-41.05-9.76c-16.26,0-30.4,3.14-42.47,9.41c-12.07,6.26-22.03,14.51-29.92,24.7
		c-7.9,10.21-13.81,21.7-17.75,34.45C1510.81,4673.21,1508.83,4686.08,1508.83,4699.08 M1783.74,4867.5h-79.34v-50.11h-1.39
		c-11.61,19.49-27.73,34.35-48.38,44.54c-20.64,10.21-42.8,15.31-66.46,15.31c-25.53,0-48.37-4.76-68.55-14.27
		c-20.18-9.5-37.35-22.26-51.51-38.26c-14.16-16-25.06-34.81-32.71-56.38c-7.66-21.56-11.48-44.65-11.48-69.25
		c0-24.59,3.94-47.57,11.83-68.9c7.89-21.34,19.03-39.91,33.41-55.69c14.37-15.76,31.54-28.18,51.5-37.23
		c19.94-9.05,41.76-13.58,65.42-13.58c15.32,0,29,1.75,41.07,5.23c12.05,3.48,22.61,7.79,31.67,12.88
		c9.04,5.11,16.8,10.68,23.31,16.7c6.48,6.04,11.83,11.84,16,17.4h2.09v-188.4h83.52V4867.5z"/>
	<path class="st1" d="M2154.1,4866.58h-81.16v-54.83h-1.42c-7.61,17.09-20.78,32.17-39.51,45.23
		c-18.77,13.04-40.95,19.57-66.58,19.57c-22.32,0-41.42-3.9-57.31-11.75c-15.91-7.82-28.96-18.16-39.17-30.97
		c-10.21-12.81-17.68-27.51-22.42-44.13c-4.75-16.61-7.12-33.7-7.12-51.27v-213.58h85.43v189.37c0,9.98,0.72,20.42,2.13,31.32
		c1.43,10.94,4.51,20.78,9.26,29.56c4.74,8.79,11.27,16.03,19.58,21.71c8.3,5.7,19.34,8.55,33.1,8.55c13.28,0,25.02-2.73,35.24-8.2
		c10.19-5.46,18.5-12.45,24.92-20.99c6.4-8.55,11.27-18.39,14.59-29.55c3.31-11.14,4.99-22.42,4.99-33.82v-187.94h85.43V4866.58z"/>
	<path class="st1" d="M569.4,4761.52c-20,29.68-53.1,47.4-88.56,47.4c-58.96,0-106.93-47.97-106.93-106.92
		c0-58.97,47.97-106.94,106.93-106.94c35.62,0,68.8,17.72,88.78,47.39l1.72,2.57l58.32-45.1l-1.61-2.26
		c-33.96-47.79-89-76.31-147.21-76.31c-99.61,0-180.65,81.04-180.65,180.66c0,99.6,81.04,180.64,180.65,180.64
		c57.64,0,112.35-28.14,146.35-75.26l1.61-2.24l-57.64-46.23L569.4,4761.52z"/>
	<path class="st1" d="M1234.38,3641.43c-587.99,0-1066.36,478.37-1066.36,1066.36s478.37,1066.35,1066.36,1066.35
		s1066.36-478.36,1066.36-1066.35S1822.37,3641.43,1234.38,3641.43 M1234.38,5837.81c-623.09,0-1130.02-506.93-1130.02-1130.02
		c0-623.1,506.93-1130.03,1130.02-1130.03S2364.4,4084.68,2364.4,4707.79C2364.4,5330.88,1857.47,5837.81,1234.38,5837.81"/>
	<g>
		<path class="st1" d="M2701.75,4746.31c0,1.94,0,3.87,0,5.8c0,1.94-0.12,3.87-0.36,5.8h-136.73c0.24,7.21,1.87,13.99,4.9,20.35
			c3.02,6.36,7.07,11.89,12.15,16.57c5.08,4.68,10.94,8.34,17.59,10.98c6.65,2.64,13.72,3.96,21.22,3.96
			c11.61,0,21.64-2.54,30.1-7.62c8.46-5.08,15.11-11.24,19.95-18.5l23.94,19.22c-9.19,12.18-20.01,21.15-32.46,26.91
			c-12.46,5.75-26.3,8.63-41.53,8.63c-13.06,0-25.15-2.18-36.27-6.53c-11.12-4.35-20.67-10.46-28.65-18.31
			c-7.98-7.85-14.27-17.35-18.86-28.47c-4.6-11.12-6.89-23.45-6.89-36.99c0-13.3,2.24-25.57,6.72-36.81
			c4.48-11.24,10.72-20.85,18.72-28.83c8-7.98,17.45-14.2,28.35-18.68c10.9-4.47,22.65-6.71,35.25-6.71
			c12.6,0,24.05,2.06,34.35,6.17c10.3,4.11,19.02,10.04,26.17,17.77c7.15,7.74,12.66,17.11,16.54,28.11
			C2699.82,4720.14,2701.75,4732.53,2701.75,4746.31z M2666.94,4732.53c-0.24-6.77-1.39-13.11-3.45-19.04
			c-2.06-5.92-5.08-11.06-9.07-15.42c-3.99-4.35-8.95-7.8-14.87-10.34c-5.93-2.54-12.88-3.81-20.85-3.81
			c-7.25,0-14.09,1.27-20.49,3.81c-6.41,2.54-11.97,5.98-16.68,10.34c-4.71,4.35-8.59,9.49-11.61,15.42
			c-3.03,5.93-4.78,12.27-5.26,19.04H2666.94z M2628.63,4629.16h-27.92l36.25-52.23h40.97L2628.63,4629.16z"/>
		<path class="st1" d="M2953.46,4654.55c11.36,0,21.09,1.99,29.2,5.98c8.1,3.99,14.75,9.25,19.95,15.78
			c5.2,6.53,9.01,14.03,11.42,22.49c2.42,8.47,3.63,17.17,3.63,26.11v108.81h-43.52v-96.48c0-5.08-0.36-10.39-1.09-15.96
			c-0.73-5.56-2.3-10.57-4.72-15.05c-2.42-4.47-5.75-8.16-9.97-11.06c-4.23-2.9-9.85-4.35-16.86-4.35c-6.77,0-12.58,1.45-17.41,4.35
			c-4.84,2.9-8.83,6.65-11.97,11.24c-3.15,4.6-5.44,9.74-6.89,15.42c-1.45,5.68-2.18,11.31-2.18,16.86v95.03h-43.52v-105.18
			c0-10.88-2.6-19.88-7.8-27.02c-5.2-7.13-13.36-10.7-24.48-10.7c-6.53,0-12.21,1.39-17.05,4.17c-4.84,2.78-8.77,6.35-11.79,10.7
			c-3.03,4.35-5.32,9.37-6.89,15.05c-1.58,5.68-2.36,11.43-2.36,17.23v95.75h-43.52v-174.09h41.35v27.93h0.73
			c1.93-4.35,4.53-8.46,7.8-12.33c3.26-3.86,7.13-7.37,11.61-10.52c4.47-3.14,9.61-5.62,15.41-7.44c5.8-1.81,12.21-2.72,19.22-2.72
			c13.54,0,24.78,3.03,33.73,9.07c8.94,6.05,15.83,14.03,20.67,23.94c5.8-10.64,13.54-18.8,23.21-24.48
			C2929.04,4657.4,2940.4,4654.55,2953.46,4654.55z"/>
		<path class="st1" d="M3176.52,4811.6h-1.09c-4.35,7.74-11.37,14.09-21.04,19.04c-9.67,4.95-20.67,7.44-33.01,7.44
			c-7.02,0-14.33-0.91-21.94-2.72c-7.62-1.81-14.63-4.83-21.04-9.07c-6.41-4.23-11.73-9.79-15.96-16.68
			c-4.23-6.89-6.35-15.41-6.35-25.57c0-13.06,3.68-23.45,11.06-31.19c7.37-7.74,16.86-13.66,28.47-17.77
			c11.61-4.11,24.48-6.83,38.63-8.16c14.15-1.33,27.98-1.99,41.53-1.99v-4.35c0-10.88-3.93-18.92-11.79-24.12
			c-7.86-5.2-17.23-7.8-28.11-7.8c-9.19,0-18.02,1.94-26.48,5.8c-8.47,3.87-15.48,8.58-21.04,14.15l-22.49-26.48
			c9.91-9.19,21.34-16.08,34.28-20.67c12.93-4.59,26.05-6.89,39.35-6.89c15.47,0,28.23,2.18,38.26,6.53
			c10.03,4.35,17.95,10.04,23.76,17.05c5.8,7.02,9.85,14.87,12.15,23.57c2.3,8.71,3.45,17.41,3.45,26.11v105.91h-40.62V4811.6z
			 M3175.79,4754.29H3166c-7.02,0-14.39,0.31-22.12,0.91c-7.74,0.61-14.87,1.94-21.4,3.99c-6.53,2.06-11.97,4.96-16.32,8.71
			c-4.35,3.75-6.53,8.89-6.53,15.41c0,4.11,0.91,7.56,2.72,10.34c1.81,2.78,4.17,5.02,7.07,6.71c2.9,1.69,6.17,2.9,9.79,3.63
			c3.63,0.73,7.25,1.09,10.88,1.09c14.99,0,26.35-3.99,34.09-11.97c7.74-7.98,11.61-18.86,11.61-32.64V4754.29z"/>
		<path class="st1" d="M3262.47,4600.51c0-7.01,2.6-13.11,7.8-18.32c5.2-5.2,11.79-7.8,19.77-7.8c7.98,0,14.69,2.48,20.13,7.44
			c5.44,4.96,8.16,11.19,8.16,18.68c0,7.5-2.72,13.73-8.16,18.68c-5.44,4.96-12.15,7.44-20.13,7.44c-7.98,0-14.57-2.6-19.77-7.8
			C3265.07,4613.63,3262.47,4607.53,3262.47,4600.51z M3268.64,4659.63h43.52v174.09h-43.52V4659.63z"/>
		<path class="st1" d="M3460.5,4706.05c-3.87-5.08-9.19-9.49-15.96-13.24c-6.77-3.74-14.15-5.62-22.12-5.62
			c-7.02,0-13.42,1.45-19.22,4.35c-5.8,2.9-8.7,7.74-8.7,14.51c0,6.77,3.2,11.55,9.61,14.33c6.4,2.78,15.78,5.62,28.11,8.52
			c6.53,1.45,13.11,3.39,19.77,5.8c6.65,2.42,12.69,5.62,18.13,9.61s9.85,8.95,13.24,14.87c3.38,5.93,5.08,13.12,5.08,21.58
			c0,10.64-1.99,19.65-5.98,27.02c-3.99,7.38-9.31,13.36-15.96,17.95c-6.65,4.6-14.39,7.92-23.21,9.97
			c-8.83,2.05-17.95,3.08-27.38,3.08c-13.54,0-26.72-2.48-39.53-7.44c-12.82-4.95-23.46-12.03-31.92-21.22l28.65-26.84
			c4.83,6.29,11.12,11.49,18.86,15.6c7.73,4.11,16.32,6.17,25.75,6.17c3.14,0,6.35-0.36,9.61-1.09c3.26-0.73,6.28-1.87,9.07-3.45
			c2.78-1.57,5.01-3.68,6.71-6.35c1.69-2.66,2.54-5.92,2.54-9.79c0-7.25-3.33-12.45-9.97-15.6c-6.65-3.14-16.63-6.28-29.92-9.43
			c-6.53-1.45-12.88-3.32-19.04-5.62c-6.17-2.3-11.67-5.32-16.5-9.07c-4.84-3.75-8.7-8.4-11.61-13.96
			c-2.9-5.56-4.35-12.45-4.35-20.67c0-9.67,1.99-18.01,5.98-25.03c3.99-7.01,9.25-12.75,15.78-17.23c6.53-4.47,13.9-7.8,22.12-9.97
			c8.22-2.18,16.68-3.26,25.39-3.26c12.57,0,24.84,2.18,36.81,6.53c11.97,4.35,21.46,11.01,28.47,19.95L3460.5,4706.05z"/>
		<path class="st1" d="M3557.33,4920.77h-24.66v-256.79h24.66v29.38h1.09c7.01-11.12,16.38-19.52,28.11-25.21
			c11.72-5.68,23.63-8.52,35.72-8.52c13.3,0,25.33,2.3,36.09,6.89c10.76,4.6,19.95,10.88,27.56,18.86
			c7.62,7.98,13.54,17.41,17.77,28.29c4.23,10.88,6.35,22.61,6.35,35.18c0,12.58-2.12,24.3-6.35,35.18
			c-4.23,10.88-10.16,20.31-17.77,28.29c-7.62,7.98-16.81,14.27-27.56,18.86c-10.76,4.59-22.79,6.89-36.09,6.89
			c-12.09,0-24-2.85-35.72-8.52c-11.73-5.68-21.1-13.84-28.11-24.48h-1.09V4920.77z M3683.91,4748.85c0-9.43-1.45-18.31-4.35-26.66
			c-2.9-8.34-7.07-15.59-12.51-21.76s-12.15-11.06-20.13-14.69c-7.98-3.63-17.05-5.44-27.2-5.44c-9.43,0-18.13,1.76-26.11,5.26
			c-7.98,3.51-14.87,8.34-20.67,14.51c-5.8,6.17-10.34,13.42-13.6,21.76c-3.26,8.34-4.9,17.35-4.9,27.02
			c0,9.67,1.63,18.68,4.9,27.02c3.26,8.34,7.8,15.54,13.6,21.58c5.8,6.05,12.69,10.82,20.67,14.33c7.98,3.51,16.68,5.26,26.11,5.26
			c10.16,0,19.22-1.75,27.2-5.26c7.98-3.5,14.69-8.34,20.13-14.51c5.44-6.17,9.61-13.42,12.51-21.76
			S3683.91,4758.28,3683.91,4748.85z"/>
		<path class="st1" d="M3869.97,4723.87c0-14.64-3.87-25.56-11.61-32.76c-7.74-7.2-18.98-10.8-33.73-10.8
			c-10.16,0-19.59,1.81-28.29,5.44c-8.7,3.63-16.08,8.47-22.12,14.51l-13.78-16.32c7.01-7.01,16.26-12.81,27.75-17.41
			c11.48-4.59,24.48-6.89,38.99-6.89c9.19,0,17.77,1.27,25.75,3.81c7.98,2.54,14.99,6.35,21.04,11.42
			c6.04,5.08,10.76,11.49,14.15,19.22c3.38,7.74,5.08,16.81,5.08,27.2v74.35c0,6.53,0.24,13.3,0.72,20.31
			c0.48,7.02,1.21,12.94,2.18,17.77h-22.13c-0.72-4.11-1.33-8.58-1.81-13.42c-0.49-4.83-0.73-9.55-0.73-14.15h-0.72
			c-7.74,11.37-16.5,19.53-26.3,24.48c-9.79,4.95-21.58,7.44-35.36,7.44c-6.53,0-13.24-0.91-20.13-2.73
			c-6.89-1.82-13.18-4.79-18.86-8.92c-5.68-4.13-10.4-9.46-14.14-16.02c-3.75-6.55-5.62-14.55-5.62-24.02
			c0-13.1,3.32-23.47,9.97-31.11c6.65-7.64,15.53-13.34,26.66-17.1c11.12-3.76,23.88-6.19,38.26-7.28
			c14.38-1.09,29.32-1.64,44.79-1.64V4723.87z M3862.71,4748.85c-10.16,0-20.37,0.43-30.65,1.27c-10.28,0.85-19.59,2.54-27.93,5.08
			s-15.18,6.23-20.49,11.06c-5.32,4.84-7.98,11.24-7.98,19.22c0,6.05,1.14,11.13,3.45,15.23c2.3,4.12,5.38,7.44,9.25,9.97
			c3.86,2.54,8.16,4.35,12.88,5.44c4.72,1.09,9.49,1.63,14.33,1.63c8.7,0,16.44-1.51,23.21-4.53c6.77-3.02,12.45-7.13,17.05-12.33
			c4.59-5.2,8.1-11.18,10.52-17.95c2.41-6.77,3.63-13.9,3.63-21.4v-12.69H3862.71z"/>
		<path class="st1" d="M3956.29,4683.57c-0.24-7.25-0.61-13.78-1.09-19.58h23.57c0.48,4.6,0.84,9.67,1.09,15.23
			c0.24,5.57,0.36,10.16,0.36,13.78h0.73c4.83-9.91,12.09-17.95,21.76-24.12c9.67-6.17,20.55-9.25,32.64-9.25
			c3.14,0,5.98,0.12,8.52,0.36c2.54,0.24,5.13,0.73,7.8,1.45l-3.26,23.57c-1.45-0.48-3.87-0.96-7.25-1.45
			c-3.39-0.48-6.77-0.72-10.16-0.72c-6.53,0-12.82,1.21-18.86,3.62c-6.05,2.42-11.31,6.21-15.78,11.4
			c-4.48,5.19-8.1,11.82-10.88,19.9c-2.78,8.08-4.17,17.79-4.17,29.13v86.84h-24.66v-132.38
			C3956.65,4696.75,3956.52,4690.82,3956.29,4683.57z"/>
		<path class="st1" d="M4194.21,4723.87c0-14.64-3.87-25.56-11.61-32.76c-7.74-7.2-18.98-10.8-33.73-10.8
			c-10.16,0-19.59,1.81-28.29,5.44c-8.71,3.63-16.08,8.47-22.12,14.51l-13.78-16.32c7.01-7.01,16.26-12.81,27.75-17.41
			c11.48-4.59,24.48-6.89,38.99-6.89c9.19,0,17.77,1.27,25.75,3.81c7.98,2.54,14.99,6.35,21.04,11.42
			c6.04,5.08,10.76,11.49,14.15,19.22c3.38,7.74,5.08,16.81,5.08,27.2v74.35c0,6.53,0.24,13.3,0.72,20.31
			c0.48,7.02,1.21,12.94,2.18,17.77h-22.13c-0.72-4.11-1.33-8.58-1.81-13.42c-0.49-4.83-0.73-9.55-0.73-14.15h-0.72
			c-7.74,11.37-16.5,19.53-26.3,24.48c-9.79,4.95-21.58,7.44-35.36,7.44c-6.53,0-13.24-0.91-20.13-2.73
			c-6.89-1.82-13.18-4.79-18.86-8.92c-5.68-4.13-10.4-9.46-14.15-16.02c-3.75-6.55-5.62-14.55-5.62-24.02
			c0-13.1,3.32-23.47,9.97-31.11c6.65-7.64,15.53-13.34,26.66-17.1c11.12-3.76,23.88-6.19,38.26-7.28
			c14.38-1.09,29.32-1.64,44.79-1.64V4723.87z M4186.95,4748.85c-10.16,0-20.37,0.43-30.65,1.27c-10.28,0.85-19.58,2.54-27.93,5.08
			s-15.18,6.23-20.49,11.06c-5.32,4.84-7.98,11.24-7.98,19.22c0,6.05,1.14,11.13,3.45,15.23c2.3,4.12,5.38,7.44,9.25,9.97
			c3.86,2.54,8.16,4.35,12.88,5.44c4.72,1.09,9.49,1.63,14.33,1.63c8.7,0,16.44-1.51,23.21-4.53c6.77-3.02,12.45-7.13,17.05-12.33
			c4.59-5.2,8.1-11.18,10.52-17.95c2.41-6.77,3.63-13.9,3.63-21.4v-12.69H4186.95z"/>
		<path class="st1" d="M4248.25,4659.63h47.51l45.7,126.94h0.72l46.06-126.94h46.06l-69.27,174.09h-46.42L4248.25,4659.63z"/>
		<path class="st1" d="M4450.26,4745.95c0-13.78,2.48-26.3,7.44-37.54c4.95-11.24,11.66-20.86,20.13-28.83
			c8.46-7.98,18.5-14.15,30.1-18.5c11.61-4.35,23.94-6.53,37-6.53c13.06,0,25.39,2.18,36.99,6.53c11.61,4.35,21.64,10.52,30.1,18.5
			c8.46,7.98,15.17,17.59,20.13,28.83c4.95,11.24,7.44,23.76,7.44,37.54c0,13.78-2.48,26.36-7.44,37.72
			c-4.96,11.37-11.67,21.1-20.13,29.2c-8.47,8.1-18.5,14.45-30.1,19.04c-11.61,4.59-23.94,6.89-36.99,6.89
			c-13.06,0-25.39-2.3-37-6.89c-11.61-4.59-21.64-10.94-30.1-19.04c-8.47-8.1-15.18-17.83-20.13-29.2
			C4452.74,4772.31,4450.26,4759.73,4450.26,4745.95z M4494.51,4745.95c0,6.77,1.03,13.54,3.08,20.31
			c2.05,6.77,5.13,12.82,9.25,18.13c4.11,5.32,9.3,9.67,15.6,13.06c6.28,3.39,13.78,5.08,22.49,5.08c8.7,0,16.2-1.69,22.49-5.08
			c6.28-3.38,11.48-7.74,15.6-13.06c4.11-5.32,7.19-11.36,9.25-18.13c2.05-6.77,3.08-13.54,3.08-20.31c0-6.77-1.03-13.48-3.08-20.13
			c-2.06-6.65-5.14-12.63-9.25-17.95c-4.12-5.32-9.31-9.61-15.6-12.88c-6.29-3.26-13.78-4.9-22.49-4.9c-8.71,0-16.2,1.63-22.49,4.9
			c-6.29,3.26-11.49,7.56-15.6,12.88c-4.12,5.32-7.2,11.31-9.25,17.95C4495.53,4732.47,4494.51,4739.18,4494.51,4745.95z"/>
		<path class="st1" d="M4800.61,4707.87c-3.39-4.83-8.47-8.89-15.23-12.15c-6.77-3.26-13.66-4.9-20.67-4.9
			c-7.98,0-15,1.63-21.04,4.9c-6.05,3.26-11.06,7.56-15.05,12.88c-3.99,5.32-6.95,11.31-8.89,17.95c-1.94,6.65-2.9,13.36-2.9,20.13
			c0,6.77,1.03,13.48,3.08,20.13c2.05,6.65,5.13,12.64,9.25,17.95c4.11,5.32,9.25,9.61,15.41,12.88c6.17,3.26,13.36,4.9,21.58,4.9
			c6.77,0,13.54-1.33,20.31-3.99c6.77-2.66,12.21-6.53,16.32-11.61l27.2,27.57c-7.25,7.74-16.5,13.73-27.74,17.95
			c-11.24,4.23-23.39,6.35-36.45,6.35c-12.82,0-24.97-2.06-36.45-6.17c-11.49-4.11-21.52-10.16-30.1-18.13
			c-8.59-7.98-15.36-17.65-20.31-29.02c-4.96-11.36-7.43-24.3-7.43-38.81c0-14.02,2.48-26.71,7.43-38.08
			c4.95-11.36,11.66-21.04,20.13-29.02c8.46-7.98,18.32-14.15,29.56-18.5c11.24-4.35,23.27-6.53,36.09-6.53
			c12.81,0,25.21,2.42,37.18,7.25c11.97,4.84,21.46,11.49,28.47,19.95L4800.61,4707.87z"/>
		<path class="st1" d="M5024.76,4748.85c0,1.94,0,3.87,0,5.8c0,1.94-0.12,3.87-0.36,5.8h-132.38c0.48,6.29,2.11,12.03,4.9,17.23
			c2.78,5.2,6.47,9.67,11.06,13.42c4.59,3.75,9.79,6.71,15.6,8.89c5.8,2.18,11.84,3.26,18.14,3.26c10.88,0,20.07-2,27.56-5.98
			c7.49-3.99,13.66-9.49,18.5-16.5l29.02,23.21c-17.17,23.21-42.07,34.82-74.72,34.82c-13.54,0-25.99-2.12-37.36-6.35
			c-11.37-4.23-21.22-10.21-29.56-17.95c-8.34-7.74-14.87-17.23-19.59-28.47c-4.71-11.24-7.07-23.99-7.07-38.26
			c0-14.02,2.36-26.78,7.07-38.26c4.72-11.48,11.18-21.27,19.4-29.38c8.22-8.1,17.95-14.38,29.2-18.86
			c11.24-4.47,23.39-6.71,36.45-6.71c12.09,0,23.27,1.99,33.55,5.98c10.27,3.99,19.16,9.92,26.66,17.77
			c7.49,7.86,13.36,17.65,17.59,29.38C5022.64,4719.42,5024.76,4733.14,5024.76,4748.85z M4966.72,4629.16l-25.02-32.64
			l-25.03,32.64h-40.62l41.71-52.23h48.96l41.35,52.23H4966.72z M4981.23,4729.27c0-5.56-0.79-10.88-2.36-15.96
			c-1.58-5.08-4.05-9.55-7.44-13.42c-3.39-3.86-7.68-6.95-12.88-9.25c-5.2-2.3-11.31-3.45-18.32-3.45
			c-13.06,0-24.12,3.93-33.19,11.79c-9.07,7.86-14.09,17.95-15.05,30.28H4981.23z"/>
	</g>
</g>
</svg>
