<?xml version="1.0" standalone="no"?>
<!DOCTYPE svg PUBLIC "-//W3C//DTD SVG 20010904//EN"
 "http://www.w3.org/TR/2001/REC-SVG-20010904/DTD/svg10.dtd">
<svg version="1.0" xmlns="http://www.w3.org/2000/svg"
 width="4096.000000pt" height="1411.000000pt" viewBox="0 0 4096.000000 1411.000000"
 preserveAspectRatio="xMidYMid meet">

<g transform="translate(0.000000,1411.000000) scale(0.100000,-0.100000)"
fill="#000000" stroke="none">
<path d="M19533 14083 c21 -103 1518 -6991 1522 -7000 3 -10 83 -13 353 -13
l349 0 613 1448 c337 796 721 1704 854 2019 132 315 243 572 246 573 3 0 389
-909 859 -2020 l854 -2020 351 2 351 3 42 195 c23 107 364 1678 758 3490 394
1812 719 3307 722 3323 l6 27 -524 -2 -523 -3 -561 -2237 c-308 -1230 -563
-2239 -565 -2241 -3 -3 -348 776 -766 1732 l-762 1736 -241 0 -242 0 -765
-1730 c-421 -951 -767 -1731 -769 -1733 -1 -1 -254 1005 -561 2237 l-559 2240
-524 1 -523 0 5 -27z"/>
<path d="M0 10580 l0 -3520 555 0 555 0 2 2684 3 2684 1109 -1699 c610 -934
1112 -1699 1116 -1699 3 0 506 765 1116 1701 l1109 1700 3 -2685 2 -2686 555
0 555 0 -2 3518 -3 3517 -616 3 -616 2 -1049 -1575 c-577 -866 -1052 -1573
-1055 -1572 -4 1 -478 710 -1054 1575 l-1048 1572 -619 0 -618 0 0 -3520z"/>
<path d="M9060 10580 l0 -3520 545 0 545 0 0 3520 0 3520 -545 0 -545 0 0
-3520z"/>
<path d="M12390 10580 l0 -3521 1318 4 c1405 4 1363 2 1642 53 212 39 500 124
705 208 125 52 390 189 513 266 227 142 489 355 674 549 1078 1129 1302 2765
562 4116 -503 919 -1400 1586 -2394 1780 -304 59 -271 58 -1702 62 l-1318 4 0
-3521z m2800 2431 c235 -44 436 -112 633 -213 484 -249 879 -681 1105 -1208
94 -219 162 -467 194 -710 16 -125 16 -489 -1 -610 -77 -564 -329 -1078 -716
-1465 -304 -304 -688 -525 -1075 -618 -245 -60 -250 -60 -1082 -64 l-768 -4 0
2461 0 2461 798 -4 c768 -4 801 -5 912 -26z"/>
<path d="M31111 14018 c-21 -46 -739 -1597 -1596 -3448 -857 -1851 -1573
-3398 -1591 -3438 l-33 -72 601 2 600 3 358 780 358 780 1624 3 1623 2 355
-785 355 -785 599 0 c565 0 598 1 592 18 -4 9 -737 1593 -1629 3520 l-1622
3502 -278 0 -278 0 -38 -82z m915 -3130 l581 -1273 -1175 -3 c-647 -1 -1177 0
-1180 3 -3 2 260 583 584 1291 454 991 591 1283 599 1270 5 -8 271 -588 591
-1288z"/>
<path d="M34450 14084 c0 -3 537 -806 1194 -1783 656 -977 1223 -1821 1259
-1877 117 -180 176 -315 223 -514 17 -70 18 -175 24 -1465 l5 -1390 65 -3 c36
-2 282 -1 547 3 l482 7 4 1362 c4 1467 2 1401 56 1602 26 95 98 247 171 364
29 47 594 891 1256 1876 662 985 1206 1799 1210 1808 6 15 -46 16 -619 16
l-625 0 -995 -1472 c-547 -810 -998 -1473 -1003 -1475 -5 -1 -457 661 -1004
1472 l-995 1474 -627 1 c-346 0 -628 -3 -628 -6z"/>
<path d="M21872 2110 c-260 -36 -496 -216 -581 -443 -11 -32 -28 -100 -35
-150 -34 -215 -28 -813 9 -977 47 -208 183 -374 380 -466 118 -55 184 -68 335
-68 161 0 237 16 360 76 68 33 102 59 171 127 96 97 153 194 188 321 33 119
45 110 -134 110 -116 0 -157 -3 -160 -12 -51 -148 -108 -231 -195 -285 -81
-49 -191 -70 -290 -54 -188 29 -311 150 -346 339 -20 109 -29 543 -15 719 13
159 35 246 82 317 102 154 349 212 534 125 97 -45 181 -150 216 -266 l12 -43
159 0 c186 0 176 -11 127 134 -101 304 -337 482 -660 500 -52 2 -123 1 -157
-4z"/>
<path d="M9220 1060 l0 -1040 155 0 155 0 0 440 0 440 435 0 435 0 0 140 0
140 -435 0 -435 0 2 318 3 317 508 3 507 2 0 140 0 140 -665 0 -665 0 0 -1040z"/>
<path d="M11620 1060 l0 -1040 160 0 160 0 0 1040 0 1040 -160 0 -160 0 0
-1040z"/>
<path d="M13180 1060 l0 -1040 155 0 155 0 2 727 3 728 479 -728 480 -727 148
0 148 0 -2 1038 -3 1037 -157 3 -158 3 -2 -729 -3 -729 -480 729 -479 728
-143 0 -143 0 0 -1040z"/>
<path d="M16489 2073 c-27 -71 -742 -2020 -747 -2036 -4 -16 7 -17 163 -15
l168 3 13 40 c8 22 39 113 70 203 l56 162 413 0 413 0 70 -202 70 -203 166 -3
c91 -1 166 1 166 5 0 5 -171 471 -379 1038 l-379 1030 -126 3 -126 3 -11 -28z
m305 -915 l153 -448 -320 0 c-269 0 -318 2 -314 14 3 8 72 202 153 432 169
482 165 472 170 459 3 -5 73 -211 158 -457z"/>
<path d="M18507 2094 c-4 -4 -7 -472 -7 -1041 l0 -1033 160 0 160 0 2 727 3
726 479 -726 479 -727 143 0 144 0 0 1040 0 1040 -155 0 -155 0 0 -725 c0
-399 -3 -725 -7 -724 -5 0 -222 325 -483 722 l-475 722 -141 3 c-77 1 -143 -1
-147 -4z"/>
<path d="M23840 1060 l0 -1040 665 0 665 0 0 140 0 140 -505 0 -505 0 0 310 0
310 430 0 430 0 0 145 0 145 -430 0 -430 0 0 305 0 305 505 0 505 0 0 140 0
140 -665 0 -665 0 0 -1040z"/>
<path d="M26300 1060 l0 -1040 155 0 155 0 0 1040 0 1040 -155 0 -155 0 0
-1040z"/>
<path d="M27850 1061 l0 -1041 160 0 160 0 0 435 0 435 198 0 197 0 218 -435
217 -435 185 0 185 0 -85 163 c-46 89 -154 295 -239 457 -147 282 -153 295
-133 304 108 43 176 84 231 140 109 109 159 236 159 406 0 177 -52 311 -168
427 -54 54 -92 82 -146 108 -147 69 -144 69 -666 73 l-473 3 0 -1040z m884
744 c114 -24 194 -89 237 -195 22 -55 18 -204 -7 -260 -28 -61 -67 -105 -121
-137 -78 -45 -135 -53 -415 -53 l-258 0 0 330 0 330 248 0 c177 0 266 -4 316
-15z"/>
<path d="M30966 2068 c-19 -47 -738 -2009 -744 -2031 -4 -16 7 -17 163 -15
l168 3 13 40 c8 22 39 113 70 203 l56 162 413 0 412 0 70 -202 70 -203 167 -3
c164 -2 167 -2 161 18 -3 11 -174 478 -380 1037 l-373 1018 -126 3 -127 3 -13
-33z m454 -1350 c0 -5 -142 -8 -315 -8 -173 0 -315 2 -315 3 0 3 301 856 316
897 5 12 314 -867 314 -892z"/>
</g>
</svg>
