<?xml version="1.0" standalone="no"?>
<!DOCTYPE svg PUBLIC "-//W3C//DTD SVG 20010904//EN"
 "http://www.w3.org/TR/2001/REC-SVG-20010904/DTD/svg10.dtd">
<svg version="1.0" xmlns="http://www.w3.org/2000/svg"
 width="800.000000pt" height="242.000000pt" viewBox="0 0 800.000000 242.000000"
 preserveAspectRatio="xMidYMid meet">

<g transform="translate(0.000000,242.000000) scale(0.100000,-0.100000)"
fill="#000000" stroke="none">
<path d="M730 2243 c-654 -378 -705 -409 -718 -436 -20 -41 -1 -70 80 -120 40
-25 235 -138 433 -252 198 -114 394 -227 436 -251 42 -24 82 -44 90 -44 8 0
48 20 89 43 41 24 242 140 445 257 425 244 462 266 493 294 24 21 29 62 9 87
-7 9 -84 57 -172 108 -88 51 -200 116 -250 145 -49 29 -139 81 -200 116 -60
35 -146 85 -190 110 -137 81 -211 120 -226 120 -8 0 -151 -80 -319 -177z m522
-99 c112 -65 217 -125 233 -134 17 -9 104 -60 195 -112 91 -52 173 -99 184
-105 15 -9 -10 -26 -160 -113 -99 -57 -215 -124 -259 -150 -44 -26 -129 -75
-190 -110 -60 -35 -130 -75 -155 -90 l-46 -27 -159 92 c-88 50 -216 124 -285
164 -69 40 -182 105 -252 145 -70 39 -127 73 -127 76 -1 3 158 96 352 208 193
111 377 218 407 236 30 19 56 35 57 35 2 1 94 -51 205 -115z"/>
<path d="M2433 2413 c-17 -2 -37 -11 -44 -19 -15 -18 -26 -310 -15 -397 11
-88 16 -91 149 -95 167 -5 207 23 207 145 0 82 -20 114 -85 136 -5 2 -2 11 8
21 23 23 23 117 0 157 -29 49 -102 67 -220 52z m155 -85 c15 -15 16 -72 2 -99
-9 -16 -22 -19 -75 -19 l-65 0 0 65 0 65 63 0 c36 0 68 -5 75 -12z m42 -198
c8 -5 16 -33 20 -70 7 -77 -6 -90 -95 -90 -105 0 -105 0 -105 91 l0 79 83 0
c45 0 89 -4 97 -10z"/>
<path d="M2797 2233 c-14 -13 -6 -53 12 -63 11 -5 60 -10 109 -10 65 0 93 -4
101 -14 10 -12 -3 -15 -83 -18 -93 -3 -97 -4 -128 -36 -27 -27 -33 -40 -33
-77 0 -37 6 -50 33 -77 31 -31 37 -33 116 -36 148 -7 186 28 186 170 0 93 -20
141 -66 158 -28 11 -237 14 -247 3z m233 -207 c0 -37 -21 -47 -96 -44 -74 3
-100 22 -75 52 10 12 33 16 92 16 77 0 79 -1 79 -24z"/>
<path d="M3220 2227 c-45 -22 -60 -70 -60 -189 0 -84 3 -110 16 -122 8 -9 21
-16 28 -16 29 0 36 25 36 130 0 58 4 112 9 119 14 22 130 27 156 8 17 -13 21
-30 25 -134 l5 -118 30 0 30 0 3 133 3 133 -35 35 c-34 34 -34 34 -127 34 -55
0 -104 -6 -119 -13z"/>
<path d="M3624 2230 c-12 -4 -31 -21 -43 -36 -18 -23 -21 -40 -21 -121 0 -151
29 -176 199 -171 86 3 106 6 115 21 8 12 8 22 0 35 -9 14 -29 17 -115 20 -122
3 -129 8 -129 92 0 88 9 94 137 100 l108 5 0 30 0 30 -115 2 c-63 1 -125 -2
-136 -7z"/>
<path d="M4004 2230 c-48 -19 -64 -56 -64 -151 0 -105 9 -133 52 -159 50 -30
182 -29 229 3 47 31 59 61 59 145 0 138 -34 172 -172 171 -46 0 -93 -4 -104
-9z m187 -81 c13 -21 11 -143 -3 -157 -7 -7 -41 -12 -85 -12 -85 0 -93 8 -93
94 0 81 21 100 107 94 42 -3 68 -9 74 -19z"/>
<path d="M2504 1711 c-51 -29 -89 -72 -112 -124 -9 -20 -12 -134 -12 -418 0
-429 0 -432 63 -498 18 -18 55 -44 82 -57 46 -22 62 -24 210 -23 108 0 172 4
198 13 52 19 103 60 135 109 l27 42 0 410 c0 453 2 436 -66 504 -65 65 -88 71
-291 71 l-183 0 -51 -29z m379 -143 c46 -24 46 -24 47 -401 l0 -358 -25 -24
c-23 -24 -28 -25 -167 -25 -97 1 -148 5 -159 13 -37 28 -39 49 -39 394 0 361
2 376 50 400 33 17 263 18 293 1z"/>
<path d="M3389 1715 c-26 -13 -59 -39 -74 -57 -61 -72 -60 -62 -63 -556 l-3
-452 30 -30 c38 -38 82 -40 116 -5 25 24 25 25 25 230 l0 205 89 0 c59 0 92
-4 98 -12 6 -7 56 -103 113 -213 56 -110 111 -208 122 -217 32 -28 92 -24 117
8 12 15 21 38 21 52 0 24 -49 128 -147 309 l-44 82 35 15 c52 22 112 90 136
154 19 51 21 73 18 202 -4 159 -9 177 -70 239 -62 64 -91 71 -293 70 -170 0
-182 -1 -226 -24z m390 -161 l31 -26 0 -117 c0 -93 -3 -121 -17 -141 -33 -48
-40 -49 -210 -50 l-163 0 0 148 c0 209 2 210 202 211 122 1 128 0 157 -25z"/>
<path d="M4151 1714 c-21 -26 -21 -36 -21 -551 l0 -524 25 -24 c36 -37 86 -34
119 6 l27 31 -3 525 -3 525 -24 19 c-36 29 -94 25 -120 -7z"/>
<path d="M4595 1721 c-46 -21 -99 -71 -123 -115 -15 -28 -17 -76 -17 -436 l0
-405 25 -45 c29 -52 95 -105 148 -120 20 -5 107 -10 192 -10 173 0 214 11 278
73 72 68 77 89 77 309 0 194 0 197 -24 222 l-24 26 -177 0 c-172 0 -177 -1
-198 -23 -30 -32 -29 -87 1 -115 20 -19 36 -22 137 -24 l115 -3 3 -105 c3
-122 0 -142 -30 -170 -20 -18 -35 -20 -165 -20 -139 0 -145 1 -168 25 l-25 24
0 360 0 359 32 27 c31 26 32 26 171 23 138 -3 139 -3 163 -31 14 -16 24 -41
24 -58 0 -40 39 -79 79 -79 17 0 42 10 58 24 24 21 28 31 26 74 -4 93 -51 165
-134 207 -46 24 -57 25 -226 25 -152 0 -184 -3 -218 -19z"/>
<path d="M5352 1717 l-22 -23 0 -530 0 -531 23 -21 c32 -30 87 -29 115 1 l22
23 0 530 0 531 -23 21 c-32 30 -87 29 -115 -1z"/>
<path d="M5669 1721 l-24 -19 -3 -514 c-1 -282 0 -523 3 -535 15 -62 95 -84
140 -38 l25 24 0 351 c0 209 4 349 9 346 5 -4 29 -43 54 -89 184 -337 341
-615 359 -634 30 -32 81 -31 113 2 l25 24 0 526 0 526 -25 24 c-46 47 -125 25
-140 -37 -3 -13 -4 -182 -3 -376 2 -193 1 -352 -2 -352 -3 0 -47 80 -97 178
-265 507 -311 590 -333 602 -30 16 -76 12 -101 -9z"/>
<path d="M6665 1718 c-53 -27 -92 -64 -118 -113 -21 -39 -22 -51 -25 -485 -2
-245 0 -455 3 -467 15 -63 92 -83 139 -37 l26 27 0 203 0 204 195 0 195 0 0
-205 0 -206 26 -24 c37 -34 78 -33 115 4 l29 29 0 421 c0 264 -4 439 -11 471
-16 75 -64 139 -128 172 -53 28 -56 28 -230 28 -158 -1 -180 -3 -216 -22z
m387 -166 c22 -21 23 -30 23 -175 l0 -152 -192 -3 -193 -2 0 154 0 154 32 27
c31 26 32 26 169 23 128 -3 140 -5 161 -26z"/>
<path d="M7419 1721 l-24 -19 -3 -525 -3 -525 27 -31 26 -31 254 0 255 0 24
26 c32 34 32 75 1 111 l-24 28 -196 3 -196 3 0 463 c0 454 0 464 -21 490 -26
32 -84 36 -120 7z"/>
<path d="M25 1485 l-25 -24 0 -414 c0 -380 1 -417 17 -436 10 -11 58 -44 108
-72 149 -86 610 -351 760 -438 77 -44 151 -81 165 -81 14 0 75 29 135 63 61
35 202 117 315 182 113 65 282 162 375 216 94 53 182 108 197 122 l28 25 0
419 0 420 -23 21 c-33 31 -80 29 -106 -4 -20 -26 -21 -37 -21 -410 l0 -383
-29 -16 c-17 -8 -184 -104 -373 -213 -189 -110 -370 -214 -403 -232 -33 -18
-67 -38 -76 -43 -16 -10 -40 3 -609 331 -129 75 -252 145 -272 156 l-38 21 0
386 0 386 -23 21 c-31 29 -72 28 -102 -3z"/>
</g>
</svg>
