<?xml version="1.0" standalone="no"?>
<!DOCTYPE svg PUBLIC "-//W3C//DTD SVG 20010904//EN"
 "http://www.w3.org/TR/2001/REC-SVG-20010904/DTD/svg10.dtd">
<svg version="1.0" xmlns="http://www.w3.org/2000/svg"
 width="828.000000pt" height="296.000000pt" viewBox="0 0 828.000000 296.000000"
 preserveAspectRatio="xMidYMid meet">

<g transform="translate(0.000000,296.000000) scale(0.100000,-0.100000)"
fill="#000000" stroke="none">
<path d="M450 2070 l0 -720 155 0 155 0 0 300 0 300 93 0 c97 0 155 -18 188
-56 16 -18 158 -227 301 -441 l68 -103 181 0 c141 0 179 3 173 13 -4 6 -26 39
-49 72 -23 33 -104 152 -180 265 -76 113 -146 216 -157 229 -10 13 -18 29 -18
36 0 6 28 27 63 44 108 57 190 152 221 260 53 181 -42 369 -234 466 -95 48
-168 55 -580 55 l-380 0 0 -720z m815 423 c105 -58 111 -176 12 -241 l-40 -27
-239 -3 -238 -3 0 144 c0 79 3 147 8 151 4 4 108 6 232 4 209 -3 228 -5 265
-25z"/>
<path d="M2515 2774 c-239 -42 -426 -175 -542 -384 -55 -100 -77 -191 -77
-320 -1 -124 19 -212 71 -314 90 -177 256 -313 463 -378 66 -20 94 -23 235
-23 175 1 222 11 350 77 64 33 185 120 222 160 l23 24 -102 85 c-119 98 -128
104 -137 92 -16 -22 -120 -103 -158 -122 -330 -166 -712 107 -654 467 27 166
152 307 318 357 62 19 194 19 256 0 64 -19 142 -65 199 -115 26 -22 51 -40 58
-40 7 0 59 42 117 92 l104 93 -28 23 c-187 154 -269 196 -443 226 -111 19
-168 19 -275 0z"/>
<path d="M3490 2070 l0 -720 155 0 155 0 0 290 0 290 315 0 315 0 0 -290 0
-290 155 0 155 0 0 720 0 720 -155 0 -155 0 -2 -292 -3 -293 -310 0 -310 0 -3
293 -2 292 -155 0 -155 0 0 -720z"/>
<path d="M5052 2238 l3 -553 25 -59 c49 -121 194 -237 328 -265 33 -7 190 -11
422 -11 l370 0 0 135 0 135 -349 0 c-363 0 -394 3 -439 44 -53 47 -52 36 -52
601 l0 525 -155 0 -156 0 3 -552z"/>
<path d="M6925 2775 c-310 -57 -530 -263 -606 -565 -85 -334 137 -695 506
-826 76 -27 89 -28 245 -28 156 0 169 1 245 28 306 109 515 382 517 676 3 273
-158 518 -425 649 -144 70 -325 95 -482 66z m283 -283 c120 -38 217 -123 275
-242 30 -62 32 -71 32 -180 0 -108 -2 -119 -31 -180 -139 -293 -514 -361 -741
-135 -133 134 -169 345 -86 508 52 105 171 202 282 233 71 19 199 17 269 -4z"/>
<path d="M1940 411 l0 -241 35 0 35 0 0 111 0 111 57 -4 c65 -6 75 -15 160
-144 46 -70 50 -74 86 -74 20 0 37 2 37 5 0 3 -31 51 -70 107 l-69 103 43 22
c92 47 101 155 18 218 -24 18 -46 20 -179 23 l-153 3 0 -240z m295 154 c30
-29 32 -55 6 -86 -18 -22 -28 -24 -125 -27 l-106 -4 0 71 0 71 100 0 c94 0
103 -2 125 -25z"/>
<path d="M2490 410 l0 -240 35 0 35 0 0 240 0 240 -35 0 -35 0 0 -240z"/>
<path d="M2839 484 c-43 -91 -93 -195 -110 -232 -17 -37 -33 -70 -36 -74 -2
-5 14 -8 35 -8 39 0 41 1 63 55 l23 55 120 0 121 -1 25 -54 c24 -53 27 -55 63
-55 32 0 37 2 29 17 -5 10 -55 118 -113 240 -79 169 -108 223 -122 223 -13 0
-38 -42 -98 -166z m135 -33 c58 -118 61 -111 -38 -111 -47 0 -86 2 -86 4 0 10
80 176 84 176 3 0 21 -31 40 -69z"/>
<path d="M3383 629 c-49 -24 -109 -87 -129 -135 -35 -84 -7 -192 66 -258 39
-35 119 -66 170 -66 42 0 122 27 158 54 l33 24 -26 20 -26 21 -35 -24 c-123
-84 -284 2 -284 152 0 59 24 102 81 143 57 41 131 42 197 4 l44 -26 21 21 c25
24 21 29 -47 65 -64 34 -160 36 -223 5z"/>
<path d="M3810 410 l0 -240 35 0 34 0 3 113 3 112 125 0 125 0 3 -113 3 -112
34 0 35 0 0 240 0 240 -35 0 -35 0 0 -100 0 -100 -130 0 -130 0 0 100 0 100
-35 0 -35 0 0 -240z"/>
<path d="M4350 493 c0 -87 5 -175 11 -195 23 -85 135 -141 238 -120 63 13 122
51 142 90 9 19 14 81 17 205 l4 177 -36 0 -35 0 -3 -175 c-3 -173 -3 -175 -29
-201 -54 -53 -161 -51 -211 6 l-28 30 0 170 0 170 -35 0 -35 0 0 -157z"/>
<path d="M4900 410 l0 -240 185 0 185 0 0 30 0 30 -150 0 -150 0 0 79 c0 65 3
80 17 85 9 4 71 6 138 5 l120 -1 3 26 3 26 -140 0 -141 0 0 70 0 70 150 0 150
0 0 30 0 30 -185 0 -185 0 0 -240z"/>
<path d="M5410 455 l0 -194 30 -34 c39 -45 86 -57 224 -57 l116 0 0 29 0 29
-131 4 c-178 4 -169 -8 -169 234 l0 184 -35 0 -35 0 0 -195z"/>
<path d="M6014 631 c-132 -60 -187 -201 -124 -319 39 -74 92 -115 171 -132
179 -39 342 117 300 286 -36 142 -213 226 -347 165z m185 -60 c92 -48 128
-159 77 -245 -63 -108 -204 -127 -288 -39 -65 68 -73 148 -22 225 47 73 153
99 233 59z"/>
</g>
</svg>
